<svg xmlns="http://www.w3.org/2000/svg" width="83" height="107" fill="none">
  <symbol xmlns="http://www.w3.org/2000/svg" id="icon">
    <path xmlns="http://www.w3.org/2000/svg" fill-rule="evenodd" clip-rule="evenodd" d="M42.048 37.228c-10.174 0-18.624-8.445-18.624-18.442C23.424 8.446 31.874 0 42.048 0c10.519 0 18.624 8.445 18.624 18.786 0 9.997-8.105 18.442-18.624 18.442Zm0-26.37c-4.311 0-7.588 3.62-7.588 7.928 0 4.31 3.277 7.584 7.588 7.584 4.483 0 7.587-3.275 7.587-7.584 0-4.308-3.104-7.928-7.587-7.928Zm7.415 41.71 10.519 10.168c2.07 2.24 2.07 5.515 0 7.584-2.242 2.24-5.69 2.24-7.415 0l-10.52-10.341-10.173 10.34c-1.035 1.035-2.415 1.552-3.966 1.552-1.208 0-2.587-.517-3.794-1.551-2.07-2.069-2.07-5.343 0-7.584l10.691-10.169c-3.966-1.206-7.587-2.757-11.036-4.825-2.587-1.38-3.104-4.826-1.725-7.412 1.725-2.585 4.829-3.274 7.588-1.55 7.587 4.653 17.244 4.653 24.832 0 2.759-1.724 6.035-1.035 7.587 1.55 1.552 2.586.862 6.033-1.552 7.412-3.276 2.068-7.07 3.619-11.036 4.825Z" fill="#f58220"/>
    <g xmlns="http://www.w3.org/2000/svg" opacity=".8" fill="#f58220"><path fill-rule="evenodd" clip-rule="evenodd" d="M71.842 94.842C71 95.685 71 97.039 71 99.75v.5c0 2.71 0 4.065.84 4.908.844.842 2.199.842 4.91.842h.5c2.71 0 4.066 0 4.908-.842.842-.843.842-2.197.842-4.908v-.5c0-2.71 0-4.067-.842-4.908C81.316 94 79.96 94 77.251 94h-.51c-2.705 0-4.058 0-4.9.842Zm2.413 2.692a.081.081 0 0 0-.08-.07v.001H73.12a.08.08 0 0 0-.08.082c.034 1.622 1.06 4.989 4.172 4.989h.297a.08.08 0 0 0 .08-.08v-1.503c.747.116 1.43.461 1.86 1.03.13.172.232.348.309.507.013.028.04.046.072.046h1.046a.08.08 0 0 0 .075-.107 4.346 4.346 0 0 0-.59-1.124 3.816 3.816 0 0 0-1.245-1.099c.412-.32.767-.745 1.057-1.272a5.934 5.934 0 0 0 .533-1.37.08.08 0 0 0-.077-.1h-1.046a.08.08 0 0 0-.077.057 4.463 4.463 0 0 1-.364.858c-.222.396-.49.707-.798.925a2.292 2.292 0 0 1-.756.327v-2.087a.08.08 0 0 0-.08-.08H76.46a.08.08 0 0 0-.08.08v3.406a2.05 2.05 0 0 1-.927-.523v-.003c-.354-.34-.644-.828-.862-1.45a7.515 7.515 0 0 1-.335-1.44Z"/><path d="M3.025 97.972c.58 0 1.082.128 1.507.385.433.25.763.609.99 1.078.235.462.352 1.005.352 1.628s-.117 1.166-.352 1.628a2.517 2.517 0 0 1-.99 1.078c-.425.249-.928.374-1.507.374-.462 0-.887-.084-1.276-.253a2.525 2.525 0 0 1-.957-.704 2.166 2.166 0 0 1-.473-1.045h1.562c.059.227.19.407.396.539.205.132.444.198.715.198.352 0 .638-.11.858-.33.22-.22.363-.532.429-.935H2.101v-1.177h2.167c-.08-.389-.227-.686-.44-.891-.213-.205-.488-.308-.825-.308-.491 0-.84.224-1.045.671H.396c.11-.601.4-1.074.869-1.419.477-.345 1.063-.517 1.76-.517Zm9.55 6.028h-1.717l-1.66-2.365H8.68V104H7.173v-5.885H8.68v2.255h.54l1.517-2.255h1.64l-1.992 2.816 2.19 3.069Zm3.176.143c-.58 0-1.085-.125-1.518-.374a2.533 2.533 0 0 1-.99-1.067c-.235-.469-.352-1.019-.352-1.65 0-.623.117-1.166.352-1.628.235-.47.565-.829.99-1.078.433-.25.939-.374 1.518-.374.572 0 1.07.125 1.496.374.433.25.766.609 1.001 1.078.235.462.352 1.005.352 1.628 0 .631-.117 1.181-.352 1.65a2.447 2.447 0 0 1-.99 1.067c-.433.249-.935.374-1.507.374Zm0-1.265c.396 0 .711-.161.946-.484.235-.323.352-.77.352-1.342 0-.565-.117-1.008-.352-1.331a1.111 1.111 0 0 0-.946-.484c-.403 0-.722.161-.957.484-.235.323-.352.766-.352 1.331 0 .572.117 1.019.352 1.342.235.323.554.484.957.484Zm6.649 1.265c-.58 0-1.082-.125-1.507-.374a2.61 2.61 0 0 1-.99-1.078c-.227-.462-.341-1.005-.341-1.628s.113-1.166.34-1.628c.228-.47.554-.829.98-1.078.432-.257.938-.385 1.518-.385.697 0 1.276.172 1.738.517.47.345.759.818.869 1.419h-1.562c-.206-.447-.547-.671-1.023-.671-.418 0-.74.161-.968.484-.227.315-.341.763-.341 1.342 0 .572.114 1.019.34 1.342.228.315.555.473.98.473.271 0 .506-.066.704-.198a.9.9 0 0 0 .385-.539h1.562a2.166 2.166 0 0 1-.473 1.045 2.431 2.431 0 0 1-.946.704 3.088 3.088 0 0 1-1.265.253Zm5.503-.143h-1.727v-5.885h1.463v3.993h.055l2.08-3.993H31.5V104h-1.463v-3.993h-.055L27.903 104Zm7.731.143c-.58 0-1.081-.125-1.507-.374a2.61 2.61 0 0 1-.99-1.078c-.227-.462-.34-1.005-.34-1.628s.113-1.166.34-1.628c.228-.47.554-.829.98-1.078.432-.257.938-.385 1.517-.385.697 0 1.276.172 1.738.517.47.345.76.818.87 1.419h-1.563c-.205-.447-.546-.671-1.023-.671-.418 0-.74.161-.968.484-.227.315-.34.763-.34 1.342 0 .572.113 1.019.34 1.342.228.315.554.473.98.473.27 0 .505-.066.703-.198a.899.899 0 0 0 .385-.539h1.562a2.165 2.165 0 0 1-.473 1.045 2.43 2.43 0 0 1-.946.704 3.088 3.088 0 0 1-1.265.253ZM42.13 104h-1.507v-4.62h-1.859v-1.265h5.225v1.265H42.13V104Zm7.896-3.124c0 .191-.018.378-.055.561h-3.97c.05.506.194.887.428 1.144.235.257.558.385.968.385.228 0 .43-.044.605-.132a.758.758 0 0 0 .363-.396h1.563a2.05 2.05 0 0 1-.87 1.254c-.447.301-1.011.451-1.694.451-.564 0-1.063-.125-1.495-.374a2.546 2.546 0 0 1-.99-1.056c-.228-.462-.341-1.001-.341-1.617 0-.631.11-1.18.33-1.65.227-.477.546-.84.956-1.089.419-.257.906-.385 1.464-.385.557 0 1.04.121 1.452.363.41.242.725.583.945 1.023.228.433.341.939.341 1.518Zm-2.739-1.727c-.344 0-.623.11-.835.33-.206.22-.345.543-.419.968h2.498c-.066-.418-.206-.737-.419-.957a1.079 1.079 0 0 0-.825-.341Zm5.38 4.851h-1.43v-5.885h1.98l1.398 4.147h.055l1.44-4.147h1.937V104h-1.43v-3.817h-.055L55.23 104H54.01l-1.287-3.817h-.055V104Zm9.434-6.028c.74 0 1.316.205 1.727.616.41.41.616.975.616 1.694V104h-1.177l-.143-.616a2.418 2.418 0 0 1-1.804.759c-.594 0-1.067-.165-1.419-.495-.352-.337-.528-.785-.528-1.342 0-.609.227-1.078.682-1.408.455-.337 1.082-.506 1.881-.506h1.001v-.121c0-.367-.077-.645-.23-.836-.148-.19-.367-.286-.66-.286-.39 0-.657.172-.804.517h-1.562a1.94 1.94 0 0 1 .814-1.243c.433-.3.968-.451 1.606-.451Zm-1.22 4.246c0 .227.072.411.22.55.146.132.351.198.615.198.206 0 .414-.044.627-.132.22-.088.418-.209.594-.363v-1.034h-.99c-.345 0-.608.07-.792.209-.183.132-.275.323-.275.572Z"/></g>
  </symbol>
</svg>