<svg xmlns="http://www.w3.org/2000/svg" id="svg2" viewBox="0 0 307.2019 88.626498" height="94.535" width="327.682"><g transform="translate(-824.227 -943.79)" id="layer1"><g transform="translate(824.229 919.49)" id="g4314"><g id="g4316"><g id="g4318"><path style="fill:#fff" class="st0" d="M287.8 47.3h-4.6v16.8h-13.5v8.4h13.5v17h10.1v-37s0-5.2-5.5-5.2" id="path4320"/><path style="fill:#fff" class="st0" d="M262.3 47.3h-4.2v42.1h10.1V53c0-5.7-5.9-5.7-5.9-5.7" id="path4322"/><path style="fill:#fff" class="st0" d="M146.9 47.3c-4 0-5.5 4.2-5.5 4.2L127 88.4l-.4 1.1h10.1l10.5-27.4 5.2 13.6h-8.6l-3.2 8.3h15l2 5.5h10.2l-16.2-42.1h-4.7z" id="path4324"/><path style="fill:#fff" class="st0" d="M129.1 78.3c-2.3 1.8-5 2.8-8 2.8-7 0-12.7-5.7-12.7-12.7 0-7 5.7-12.7 12.7-12.7 3.1 0 4.4.8 4.4.8 2.2 1.3 5.3.8 6.9-1.1l2.7-3.2c-3.9-3.4-8.9-5.2-14-5.2-11.9 0-21.5 9.6-21.5 21.5S109.2 90 121.1 90c1.2 0 2.4-.1 3.6-.3.1-.3.3-.9.5-1.2.1-.3 1-2.4 1.9-4.8l2-5.4z" id="path4326"/><path style="fill:#fff" class="st0" d="M240 47.3h-22c-4.1 0-5.6 4.2-5.6 4.2L204 68l-8.3-16.5s-2-4.2-6.6-4.2h-35.5l3.2 8.3H169.9v33.8h10V55.6h7.2L198.4 78c.8 1.2.2 3.1-2.9 3.1h-5.6v8.3h5.6c2.9 0 5 .2 7-1 2.1-1 3.7-3.7 5.8-7.7L221 56.1v33.3h10V55.6h8.2c4.1 0 7.4 3.3 7.4 7.4 0 4.1-3.3 7.4-7.4 7.4h-6.6v8.3h7.4c8.7 0 15.7-7.1 15.7-15.7s-7-15.7-15.7-15.7" id="path4328"/><path style="fill:#ed1c24" class="st1" d="M77.6 47.3c-3.5 0-6.3.8-6.3 1.8l-.1 13.5c0 1 2.8 1.8 6.3 1.8s6.3-.8 6.3-1.8l.1-13.5c0-1-2.9-1.8-6.3-1.8m4.6 2.6V57.6c0 .4-.2.8-.6.9-.3.1-.5-.2-.5-.6v-2.7c0-.4-.2-.6-.6-.5-.3 0-.5.3-.5.7v.1c0 .4-.2.8-.6.9-.3.1-.6-.2-.6-.6v-4.9l-.7-.4h-.7c-3 0-5.5-.6-5.5-1.5 0-.8 2.5-1.5 5.5-1.5s5.5.6 5.5 1.5c.2.4-.2.6-.7.9" id="path4330"/><path style="fill:#ed1c24" class="st1" d="M27.4 56.7V45.5s-.1-.5-.8-.6c-.7-.2-10.6-3.3-10.6-3.3s-.2-.1-.7.1c-.5.2-9.1 3.3-9.1 3.3s-.4.1-.4.8c0 .6-.2 11-.2 11l-4 2.2-.1 4.3 1.6.5 3.3-2 2.2.7v3l1.6.5 3.2-2.1 2.9.8v3l1.6.5 11.8-6.5.1-4.4-2.4-.6zM6.8 45.1c.6-.2 8.5-3 8.5-3s.3-.2.6-.1 9.9 2.9 9.9 2.9.2.1-.1.2c-.3.2-7.1 3.2-7.1 3.2s-.4.2-.8.1-11.1-3.1-11.1-3.1-.4 0 .1-.2m-.6 1.2c0-.3.3-.3.3-.3L18 49.3s.5.2.5.4c0 .3-.2.3-.2.3L6.2 46.5v-.2zm0 1.8c0-.3.3-.3.3-.3L18 51s.5.2.5.5-.2.3-.2.3L6.2 48.3v-.2zm0 1.8c0-.4.3-.3.3-.3L18 52.9s.5.2.5.5-.2.3-.2.3L6.2 50.1v-.2zm-.1 1.8c0-.4.3-.3.3-.3L18 54.7s.5.2.5.5-.2.3-.2.3L6.1 51.9v-.2zm0 1.8c0-.3.3-.3.3-.3L18 56.5s.5.2.5.5-.2.3-.2.3L6.1 53.7v-.2zm0 1.8c0-.4.3-.3.3-.3l11.5 3.3s.5.2.5.5-.2.3-.2.3L6.1 55.5v-.2zM6 56.8c0-.4.3-.3.3-.3l11.5 3.3s.5.2.5.4c0 .3-.2.3-.2.3L6 57v-.2zm-1.8 5.6V61l1.5.5-1.5.9zm7.1 2.1v-1.4l1.4.5-1.4.9zm7.9 2.3v-2.3l2.8-1.6.1 1 1.3.3-4.2 2.6zm5.6-3.2v-2.2l2.2-1.2v1.2h1.4l-3.6 2.2zm-6.8-.3L3 59l2.4-1.4 13 3.8 8.4-4.5 2.2.5-11 5.9z" id="path4332"/><path style="fill:#fff" transform="rotate(-90.727 17.118 36.147) scale(.99998)" class="st0" id="rect4334" d="M15.6 35.8h3v.8h-3z"/><path style="fill:#fff" transform="rotate(-90.727 16.133 36.159) scale(.99998)" class="st0" id="rect4336" d="M14.7 35.8h3v.7h-3z"/><path style="fill:#fff" class="st0" id="polygon4338" d="M15.2 37.2l.4.4v-2.9l-.5.4z"/><path style="fill:#fff" class="st0" d="M23.7 40c2.1 0 3.8-1.8 3.8-4s-1.8-3.9-3.9-3.9c-.4 0-.9.1-1.3.2h-.1c-.1 0-.1 0-.2.1-.6.3-1.9.8-2.9 1.3-1.3.6-1.2 1.3-1.2 2.2v.2c0 .9 0 1.7 1.3 2.2 1 .4 2.3 1 2.9 1.2.1 0 .1.1.2.1h.1c.4.3.9.4 1.3.4" id="path4340"/><path style="fill:#ed1c24" class="st1" d="M54.9 78h.2c.1 0 .1 0 .2-.1.1 0 .1 0 .2-.1.1 0 .1-.1.2-.1s.1-.1.2-.1c.1-.1.2-.2.3-.2l.3-.3c.1-.1.2-.2.2-.3.3-.5.5-1 .5-1.6 0-1.7-1.4-3.1-3.1-3.1h-11-.1-.8c-.8-.1-1.9.4-2 .6-.2.1-.3.3-.3.5v.3h-.1v-.3s0-.2-.1-.2h-.5c-.9 0-2 .1-3 .3-.4.1-.7.3-.7.4v.3c-.1 0-.4.1-.5.2-.1 0-.1.1-.1.1v.1c-.1 0-.3.1-.4.1v.5c.1.1.2.1.4.1v.1c0 .1 0 .1.1.1s.4.2.5.3v.4c0 .2.3.3.7.4 1 .3 2.1.4 3 .4h.4c.2 0 .2-.2.2-.2v-.2h.1v.4C40 78 43 78 43 78c0 .4.4.4.4.4h.7c1.7.9.6 2.5 1.3 2.6.3 0 .6.1.8.1 0 .1.1.1.1.1.9.2 1.2.7 1.4 1.5 0 1.2.6 2.7.6 2.7 0 .1 0 .3.1.5-1.8.1-2.1.5-2.1.9l.3 3.6c0 .5.5.7 2.9.7s5.4-.4 5.4-.9l.2-3.5c0-.2-.3-.4-.8-.5l-.1-.8-.4-2.1-.8-3.8c-.4-1.6.5-1.2 1.2-1.3.1 0 .2-.1.2-.1.2 0 .5-.1.5-.1" id="path4342"/><path style="fill:#fff" class="st0" d="M39.7 112.6s13.5 2 16.4-3.9c1.4-2.8 1.7-5 3.3-5.8.4-.2.7-.3 1-.3.5 0 1-.5 1-1.2 0-.6-.9-1.1-1.9-1.1l-23.7.1c-1 0-1.9.5-1.9 1.1 0 .6.1 1.1.3 1.1.1 0 .6.8.8 2.2.2 1.4.9 6.1 4.7 7.8" id="path4344"/><path style="fill:#fff" class="st0" d="M22.6 87.1c0 .3.2.6.5.6h14.8c.3 0 .5-.3.5-.6v-6.3c0-.3-.2-.6-.5-.6H23.1c-.3 0-.5.3-.5.6v6.3z" id="path4346"/><path style="fill:#fff" class="st0" d="M30 95.8h.6v-1.5c0-.9-.3-1.5-.9-1.8-.5-.3-6.1-3.3-7-3.7-.8-.4-1-.7-1-1.1l.3-2.6c0-.4.2-.8.5-.8h.5v-.6h-.5c-.7 0-1.1.7-1.1 1.4l-.3 2.6c0 .8.5 1.2 1.3 1.6.8.4 6.4 3.3 6.9 3.7.4.2.6.7.6 1.3l.1 1.5z" id="path4348"/><path style="fill:#fff" class="st0" d="M28.8 96.1c0-.3.2-.5.5-.5h2.1c.3 0 .5.2.5.5l.4 14.1c0 .3-.2.5-.5.5h-2.9c-.3 0-.5-.2-.5-.5l.4-14.1z" id="path4350"/><path style="fill:#ed1c24" class="st1" d="M14.4 92.5c-.4.1-.7 0-1.1-.4l-.9-.8-.3.3.9.8c.5.5 1.1.6 1.6.5" id="path4352"/><path style="fill:#ed1c24" class="st1" d="M12.8 90.4c.2.1.2.4 0 .5l-1.1 1.2c-.1.2-.4.2-.6 0L3.7 86c-.2-.2-.2-.4 0-.6l1.5-1.7c.1-.2.4-.2.5 0l7.1 6.7z" id="path4354"/><path style="fill:#ed1c24" class="st1" d="M14.1 100.7c-3.1-3.4-1.9-5.9.5-8.1 2.4-2.2 5-3.2 8.1.1 3.1 3.4 4.1 11.1 3.1 12-1 1-8.7-.6-11.7-4" id="path4356"/><path style="fill:#fff" class="st0" d="M19 82.1l-3.5-2L12 82v4l3.5 2 3.5-2v-3.9zm-4.3 3.4c-.8-.5-1-1.5-.6-2.2.4-.8 1.4-1 2.2-.6.8.5 1 1.5.6 2.2-.4.8-1.4 1-2.2.6" id="path4358"/><path style="fill:#fff" class="st0" d="M7.1 69.3c.5.2.4.5.4.5l.5 4.3-2 3.4s-.2.4-.3.4c-.1.2-.5.2-1.2-.1-1.2-.5-2.8-.4-3.2-.6-.4-.2-.1-.6.1-.8.5-.5-.1-1.1-.3-1.8-.2-.8-.6-2.5-.4-3.1.2-.6.1-1-.3-1.4-.4-.4-.9-1.6.7-1.1 1.7.5 3.9-.5 6 .3m-3.7 1.4c.1.2.3.4.2.8-.1.4-.3.8-.1 1 .1.2.1.7 0 .9-.1.3 0 .5 0 .8.1.5-.3.6-.3 1.1 0 .5.3.8.8.9.5.1.7.1.8.2.1 0 .3 0 .3-.5v-4.6c0-.6-.1-.7-.6-.8-.6-.1-.8-.1-.9-.1-.2 0-.3.2-.2.3" id="path4360"/><path style="fill:#fff" class="st0" d="M33.1 26c-.1 0-.2-.1-.3-.1h-.2s-.1.1-.2.1-.1.1 0 .2c.1.4.5 1.1.6 1.6.1.5.1.6-.2.9-.1.1-.2.1-.3.2-.2.1-.5.2-.8.2h-.4c-.4 0-.9 0-1.2-.3-.2-.2-.7-2-.8-2.1h-.1s-.1.1-.2.1l-.1.1c-1.1 1.8-.4 2.8 0 3.4.7.8 1.2 1.5 1.2 1.5s.4.6.4 1.1c0 .5.2 14.6.1 15.1 0 .5-.2.9-.5 1.3-.2.3-.4.6-.7 1-.1.2-.4.5-.4 1.1 0 .4.2.7.5 1.1.4.4.6.7 1.3 1.1l.1.1h.2s.1-.1.2-.1v-.1c0-.3-.4-1.1-.6-1.5v-.3c.1-.1.2-.3.3-.4.6-.3 1.5-.5 2.1-.2 0 0 .1 0 .1.1l.1.1c.3.8.4 1.3.6 1.5 0 0 .1.1.2 0 .1 0 .2-.1.2-.1.1 0 .1-.1.2-.1 1.3-1.8-.3-3.1-.7-3.8-.4-.5-.4-.7-.5-1.2-.1-.5-.2-14.4-.3-14.8 0-.4 0-.7.2-1 .3-.8.5-.9.9-1.4.3-.4 1.5-1.3.4-2.9-.2-.6-1-1.3-1.4-1.5" id="path4362"/><path style="fill:#fff" class="st0" d="M48.6 64.5c0-.1 0-.2.1-.3 0-.1 0-.1-.1-.1.1-.3.1-.5.1-.7v-.2s.1 0 .1-.1v-.3c0-.1 0-.1-.1-.1v-.9l.1-.1v-.1-.3c0-.1 0-.1-.1-.1v-.9-.3c0-.1-.1-.1-.1-.1 0-.3-.1-.6-.1-.9v-.3c0-.1-.1-.1-.1-.1 0-.3-.1-.6-.1-.9 0-.1 0-.2-.1-.3 0-.1-.1-.1-.1-.1-.1-.3-.1-.6-.2-.9 0-.1 0-.2-.1-.3 0-.1-.1-.1-.1-.1-.1-.3-.1-.6-.2-.9 0-.1-.1-.2-.1-.3 0-.1-.1-.1-.1-.1-.1-.2-.1-.4-.2-.6V54c-.2-.8-.5-1.5-.8-2.3-.1-.3 0-.8.2-1 .1-.1.2-.1.3-.2.2-.2.4-.4.4-.6v-.1c-.1-.1-.3-.2-.5-.1-.2 0-.5 0-.8.1-.3.1-.5.1-.7.2v-1.7l-.2-.9c.1-.2.1-.4.1-.7v-.1c0-.2 0-.5-.1-.7l.4-.1v-.1-2.9c0-.3-.1-.6-.1-.6l-1.8-3.4-.9-.1-.8.1h-.1l-1.8 3.5s-.1.2-.1.5v3.1h.1l.3.1c-.1.2-.1.4-.1.7v.1c0 .2 0 .5.1.7l-.4.1V49.3c-.2-.1-.5-.1-.7-.2-.4-.1-.7-.1-.9-.1-.2 0-.5 0-.5.1v.1c0 .2.2.4.4.6.1.1.2.1.3.2.3.2.4.7.3 1-.3.8-.5 1.5-.8 2.3v.1c-.1.2-.1.4-.2.6-.1 0-.1 0-.1.1s-.1.2-.1.3l.1.1c-.1.3-.1.6-.2.9-.1 0-.1.1-.1.1 0 .1 0 .2-.1.3-.1.3-.1.6-.2.9-.1 0-.1.1-.1.1v.3c0 .3-.1.6-.1.9-.1 0-.1.1-.1.1v.3c0 .3 0 .6-.1.9-.1 0-.1.1-.1.1v1.2c-.1 0-.1.1-.1.1v1.2c-.1 0-.1.1-.1.1v.3l.1.1v.2c0 .2.1.5.1.7-.1 0-.1.1-.1.1 0 .1 0 .2.1.3l.1.1c.4 1.2.8 2.4 1.3 3.5.2.3.6.5 1 .5.4-.1.9-.2 1.3-.3.2 0 .3-.1.4-.2l.1-.1c.1-.1.2-.3.1-.4 0-.3 0-.5-.1-.8 0-.3-.1-1-.1-1 0-.3-.1-.4-.2-.4h-.1c-.1-.1-.2-.3-.2-.6-.6-4.6.1-9.4 1.9-13.8.1-.3 0-.7-.4-.8V48h1v1.4c-.3.1-.5.5-.4.8 2 4.4 2.7 9.1 2.2 13.8 0 .3-.1.5-.2.6h-.1c-.1 0-.2.2-.2.4v1.1c0 .3 0 .5-.1.8 0 .2 0 .3.1.4 0 0 0 .1.1.1.1.1.2.2.4.2.4.1.9.2 1.3.2.4.1.8-.1.9-.5.5-1.1.9-2.3 1.3-3.5.7.8.7.7.7.7zm-6.5-22.9v-.1-.1-.2l.1-.1V40.8v-.1h.1s.1 0 .1-.1l.1-.2h.2l.1.2s0 .1.1.1h.1v.4l.1.1v.5H43v.4h-.1s-.1 0-.1.1l-.1.2h-.1-.1l-.1-.2s0-.1-.1-.1h-.1V41.8v-.1l-.1-.1v.2-.2z" id="path4364"/><path style="clip-rule:evenodd;fill:#fff;fill-rule:evenodd" class="st2" d="M63.5 84.7v3.9c.1 0 .1.1.1.1V90s0 .1-.1.1c.1.4.2 1.7.5 2.3.4.8 1.3 1.3 2.5 1.3 1.4 0 3.7-1.1 4.2-1.9.3-.3.8-.1.8.2-1 1.8-3.3 3.6-5.3 4.5-2 .8-3.9 1-5.1 1.1h-.7l-.4-.2s-.1 0-.1-.1c-.3-.2-.9-.5-2.1-.6h-.3c0 .3-.1.5-.2.5l-2.7-.1c-.1 0-.2-.9-.3-2 0-1.1.1-2.1.2-2.1s2.8.1 2.8.1c.1 0 .1.2.2.5 3.1-.1 3.4-3.6 3.4-3.6h-.1v-1.4s0-.1.1-.1v-3.9l-.5-1.2c-.3-5.2-.8-15.4-.8-15.5 0-.1 1.1-.5 2.4-.5 1.2 0 2.2.4 2.2.5 0 .1-.1 10.3-.3 15.5l-.4 1.3z" id="path4366"/><path style="fill:#fff" class="st0" d="M52.4 49.6h.1l-.2 1.1h-.1v6.7h.1v.7l.1.1h-.1v.1c.3.3.6.8 0 1.3-.1.1-.1.1-.1.2v.2c.2 0 .5.1 1.3.1h.3l.1 6.4h-.2l-.3.7.4 1.7h1.1l.4-1.7-.2-.7h-.2l-.1-6.4h.7c.6 0 .7-.1.8-.1v-.2c0-.1-.1-.2-.1-.2-.6-.5-.3-1 0-1.3 0 0 0-.1.1-.1V57.4h.1v-6.7h-.1V50.1l.1-.1c-.2-1-.4-1.3-.5-1.5 0-.1 0 0-.1-.1-.2 0-.7-.1-1.4-.1h-.1c-.6 0-1.1 0-1.3.1 0 0-.1 0-.1.1-.2.1-.4.4-.5 1.1" id="path4368"/><path style="fill:#ed1c24" transform="rotate(43.104 76.117 94.725)" class="st1" id="rect4370" d="M72.8 93.5h6.5V96h-6.5z"/><path style="fill:#ed1c24" class="st1" id="polygon4372" d="M70.7 103l.4-.4-4.6-.1-.4.5z"/><path style="fill:#ed1c24" class="st1" id="polygon4374" d="M68.5 105.3l.5-.5h-3.5l.5.5z"/><path style="fill:#ed1c24" class="st1" id="polygon4376" d="M71.7 101.9l.5-.5h-4.6l-.5.5z"/><path style="fill:#ed1c24" class="st1" id="polygon4378" d="M69.6 104.2l.4-.5h-4.6l-.4.4z"/><path style="fill:#ed1c24" class="st1" id="polygon4380" d="M72.8 100.7l.4-.4h-4.6l-.4.4z"/><path style="fill:#ed1c24" class="st1" id="polygon4382" d="M67.9 106h-1.2l.6.6z"/><path style="fill:#ed1c24" class="st1" id="polygon4384" d="M76.2 97.1l-2.5-2.3-3.4 3.7h4.6z"/><path style="fill:#ed1c24" class="st1" id="polygon4386" d="M73.9 99.6l.4-.5h-4.6l-.5.5z"/><path style="fill:#fff" class="st0" d="M37 99.8v-5.6h3.9s-.2.9 1.3.6c1.5-.3 6-1.3 6-1.3s.4 0 .5.5c.1.3.2 1.1.2 1.1l-4 .9s-2.1.4-3.2 1.8c-.8.9-.7 2.2-.7 2.2h-4z" id="path4388"/><path style="fill:#fff" class="st0" d="M36.4 93.7s-.3-1 .6-1.8c.9-.7 2.9-1.8 5.4-2.7 2.6-.8 2.7-.9 2.7-.9s.3.5-.7.8c-1 .3-4.2 1.5-4.2 2.5 0 .9 0 .8.1 1.9 0 0-1 .2-1.9.3-1.1.3-2-.1-2-.1" id="path4390"/><path style="fill:#fff" transform="rotate(-12.492 47.906 95.722)" class="st0" id="rect4392" d="M46.9 95.4h2v.6h-2z"/><path style="fill:#fff" class="st0" d="M70.5 40.3l-.1.1c-.2 0-.4-.1-.5-.1-1.2 1.2-2.9 2-4.7 1.9-3.5-.1-6.2-3.1-6.1-6.6.1-1.6.7-3.1 1.8-4.2-.1-.2-.1-.4-.1-.6l.1-.1c.3-.3 0-.5-.3-.2-1.4 1.3-2.3 3.1-2.4 5.1 0 1.3.3 2.6.9 3.7-.1.3-.2 1-.2 1-.2 1-3-.1-8.4.1-.1 0-.1-.1-.1-.1-.1 0-.1.1-.1.1-.1.4-.1 3 0 3.5 0 0 0 .1.1.1s.1 0 .1-.1c5.5.5 7.5-.3 8.3.3 0 0 .2.1.3.6v.2c0 .2.2.2.3.1 0-.1 0-.8.1-1.5h1.4c.4.3.8-.1 1.3.1v.2h-2v1.3l.1 1.3v-.6.9l.1 1.2.1 2.1s1.7 2.7 1.7 2.9c.1.4.2.5.2.6v.1c.3.2.5 1.2.5 1.2.2 2.1 1 5.7 2.1 8.2.1.3.3.6.4.9 0 0 .1.2.2.2h.2c.2.2.2.5.9.4v.2l.3.6.5-.2c-.1-.2-.2-.3-.3-.5v-.2c.1 0 .3-.1.4-.1h.2c.3 0 .6-.2.7-.3 0-.1.1-.1.1-.2v-.6s0-.1-.1-.1c-.4-.2-.8-.5-.9-.6 0 0-.1-.1-.1-.2-.1-.3-.3-1-.5-1.8l.1-.1v-.1h.1l.2-.1c.1-.1.2-.2.2-.4v-.1l-.6-.3v-.1l-.2-.7s0-.1-.1-.1v-.2-.1-.1s-.1-.2.2-.3c.1 0 .2-.1.4-.1.2-.1.2-.1.3-.4 0-.1.2-1.3.2-1.3.1-.5-.3-1.5-.4-3.1v-3.5-.1c0-2.2.1-4.1.3-4.5v-.1-2.2c1.2-.4 2.2-1.2 3-2.1.3-.3.1-.5-.2-.2m-11.3 1c0-.1.1-1.1.1-1.3.1.1.7.9 1.4 1.4l-1.5-.1z" id="path4394"/><path style="fill:#fff" class="st0" d="M71.1 36.8c-.2.1-.3.1-.4.1-.2 0-.2-.1-.3-.2v-.3l.6-.2.2-.4s0-.1-.1-.1c-.2.1-.3.2-.5.2-.1 0-.2 0-.2-.1v-.3l.6-.4.1-.4s0-.1-.1 0c-.2.2-.4.2-.5.2-.1 0-.1 0-.2-.1 0-.1 0-.2-.1-.3l.5-.4v-.4s0-.1-.1 0c-.2.2-.4.3-.5.3H70c0-.1-.1-.2-.1-.2l.4-.5v-.4h-.1c-.2.3-.4.4-.5.4h-.1c0-.1-.1-.2-.1-.2l.3-.6V32h-.1c-.1.4-.3.5-.5.5l-.2-.2.2-.6-.2-.4h-.1-.1c-.1.4-.2.6-.4.6l-.2-.2.1-.7-.3-.4h-.1-.1c0 .5-.2.6-.3.6-.1 0-.1-.1-.2-.1v-.7l-.3-.3h-.1c.1.5-.1.6-.2.7-.1 0-.1 0-.2-.1l-.1-.7h-.1-.1c.2.5.1.6-.1.7h-.2l-.2-.6-.4-.2s-.1 0-.1.1c.3.4.2.6 0 .7H65l-.4-.6-.4-.1s-.1 0 0 .1c.3.4.3.6.2.7h-.2l-.5-.5h-.4s-.1 0 0 .1c.4.3.4.6.3.7-.1 0-.1 0-.2.1l-.5-.4h-.4s-.1.1 0 .1c.5.3.5.5.4.6-.1 0-.1.1-.2.1l-.6-.3-.4.1s-.1.1 0 .1c.5.2.5.4.5.6l-.1.1-.6-.2-.4.2v.1c.5.1.6.3.6.5l-.1.1-.7-.1-.8.2v.1h.1c.5 0 .5.2.5.4 0 .1-.1.1-.1.2h-.7l-.3.3v.1h.3c.3 0 .4.2.4.3 0 0 0 .1-.1.2l-.7.1-.2.4v.1c.2-.1.3-.1.4-.1.2 0 .3.1.3.2v.2l-.7.3.1.2s0 .1.1.1c.2-.1.4-.2.5-.2.2 0 .2.1.3.2v.1l-.6.4-.2.4s0 .1.1 0c.2-.2.4-.2.5-.2.1 0 .2.1.2.1v.1l-.5.5v.4s0 .1.1 0c.2-.2.4-.3.5-.3.1 0 .2.1.2.1s0 .1.1.1l-.5.6v.4h.1c.2-.3.4-.4.5-.4.1 0 .1 0 .2.1l.1.1-.3.6.1.4h.1c.1-.4.3-.5.5-.5h.1l.1.1-.2.7.2.4h.1c.1-.5.3-.6.4-.6h.1l.1.1-.1.7.3.4h.2c0-.5.2-.6.4-.7 0 0 .1 0 .1.1v.7l.3.3h.1c-.1-.5.1-.7.2-.7h.2l.1.7.4.2h.1c-.2-.5 0-.7.1-.7h.2l.3.7.4.2s.1 0 0-.1c-.3-.5-.1-.7 0-.7h.2l.4.6.4.1s.1 0 0-.1c-.3-.4-.3-.6-.1-.7h.2l.5.5h.4s.1 0 0-.1c-.4-.3-.4-.6-.3-.7.1 0 .1 0 .2-.1l.5.4h.4s.1 0 0-.1c-.4-.3-.4-.5-.4-.6.1 0 .1-.1.2-.1l.6.3.4-.1v-.1c-.5-.2-.5-.4-.5-.5l.2-.2.6.2.4-.2v-.1c-.5-.1-.6-.3-.6-.4.1-.1.1-.1.1-.2l.6.1.4-.3v-.1h-.1c-.4 0-.5-.2-.5-.3 0-.1.1-.1.1-.2h.7l.3-.3v-.1h-.3c-.2 0-.3-.1-.4-.2 0-.1.1-.2.1-.2l.7-.1v-.2c.1 0 .1-.1 0 0" id="path4396"/><path style="fill:#fff" class="st0" d="M84.3 75.2c-.1-.1-.1-.1-.2-.1h-1.9v.9h.1v1.2h-1v.8h-.1c0-.5-.1-.9-.4-1.3V76v-.1-.2c0-1-1.2-2.1-2.6-3-.3-.7-1.3-1.2-2.6-1.2s-2.4.5-2.6 1.2c-1.4.8-2.6 1.9-2.6 3v.9c-.3.4-.4.9-.4 1.3h-.1v-.8h-1v.8h-.6V77s0-.1-.1-.1v-3.7c0-.2-.2-.4-.4-.4h-.1c-.2 0-.4.2-.4.4v4.9c-.2 0-.3.1-.3.3 0 .2.1.3.3.3v4.9c0 .2.2.4.4.4h.1c.2 0 .4-.2.4-.4v-3.7c.1 0 .1 0 .1-.1v-1.1h.6v11.9h1v-3.5l2.3-1.8h9.5v1.1c-.2 0-.4-.1-.6-.1-1.4 0-2.6 1.2-2.6 2.6 0 1.4 1.2 2.6 2.6 2.6 1.4 0 2.6-1.2 2.6-2.6 0-1.1-.6-2-1.6-2.4v-1.2h.2v-3.6h5.2H86h1.7v-4.9c-.2 0-3.4-1.6-3.4-1.6m-8.8-3c1.2 0 2.2.5 2.2 1.1 0 .6-1 1.1-2.2 1.1-1.2 0-2.2-.5-2.2-1.1 0-.6 1-1.1 2.2-1.1m5.8 12.1H69.7v-5.7h.2c.1.3.2.6.4.9v.5c0 1.6 2.3 3.3 5.2 3.3 2.9 0 5.2-1.8 5.2-3.3v-.5c.2-.3.3-.5.4-.8h.2v5.6zM81 90c-.6 0-1-.5-1-1 0-.6.5-1 1-1 .6 0 1 .5 1 1 0 .6-.5 1-1 1" id="path4398"/><path style="fill:#fff" class="st0" d="M75.9 40.4c-1 0-1.9.8-1.9 1.9 0 1 .8 1.9 1.9 1.9 1 0 1.9-.8 1.9-1.9 0-1-.9-1.9-1.9-1.9" id="path4400"/><path style="fill:#fff" class="st0" d="M79.5 42.4v-.7l-.1-.3-.1-.3-.1-.3-.2-.3-.2-.3-.2-.2h-.1l-.2-.2v-.1l-.2-.2H78l-.2-.2v-.1l-.2-.1h-.1l-.2-.1-.2-.1-.2-.1-.3-.1H75.2l-.2.1v.1l-.4.1H74.3v.1l-.2.1H74l-.2.1v.1l-.1.1-.1.1v.1l-.2.2h-.1l-.2.2v.1l-.2.2h-.1l-.2.3v.1l-.1.3h-.1l-.1.2v.1l-.1.3h-.1l-.1.3v.3h-.1v.7l.1.3.1.3v.1l.1.2h.1l.1.3.1.2h.1l.2.3.2.2h.1l.2.2v.1l.3.2.3.2v.1l.3.1.4.1v.1l.4.1h1.2l.4-.1.3-.1h.1l.3-.1.3-.1h.1l.2-.2v-.1l.2-.2.2-.2v-.1l.2-.2h.1l.2-.2v-.1l.1-.2.1-.3v-.1l.1-.3h.1l.1-.3.1-.3.1-.5zm-3.6 2.3c-1.3 0-2.3-1-2.3-2.3 0-1.3 1-2.3 2.3-2.3 1.3 0 2.3 1 2.3 2.3 0 1.2-1 2.3-2.3 2.3" id="path4402"/><path style="fill:#ed1c24" class="st1" id="rect4404" d="M46.9 30h8.9v5h-8.9z"/><path style="fill:#ed1c24" class="st1" id="rect4406" d="M36.7 30H46v5h-9.3z"/><path style="fill:#fff" class="st0" d="M88.3 66c-.9-1.3-2.3-1.3-3.2 0-.2.4-.4.8-.5 1.3-.8 0-1.6.1-2.4.1-.2-.2-.2-.3-.3-.4-.1-.2-.6-.9-.7-.9-.1 0-.8 1.1-1 1.4h-.8l-.9-1.3s-.6.9-.9 1.3h-1c-.1-.2-.5-.9-.7-1.2 0 0-.6.8-.8 1.2-.7.1-.8.1-.7.7v.3c-.1.6 0 .6.8.7.4 0 .8 0 1.1.1l.9 1.2c.1-.2.7-1.2.7-1.2s.9.1 1.1.1c.1.3.8 1.3.8 1.3s.7-.9.9-1.2h1c.2.4.8 1.4 1 1.4.1-.1.7-1 .9-1.3h.9c0 .1.1.1.1.2.1.3.2.7.4.9.9 1.3 2.3 1.3 3.2 0 .9-1.2.9-3.4.1-4.7m-.4 2.8H87v1.4c0 .3-.1.5-.3.5-.2 0-.3-.2-.3-.5v-1.4h-.9c-.2 0-.3-.2-.3-.5s.1-.5.3-.5h.9v-1.4c0-.3.1-.5.3-.5.2 0 .3.2.3.5v1.4h.9c.2 0 .3.2.3.5.1.3-.1.5-.3.5" id="path4408"/><path style="fill:#fff" class="st0" d="M31.3 72.3v-.2c0-.4-.1-1.6-.1-1.8 0-.4-.1-.6-.4-.6H7.9l.6 4.5s-1.8 3.2-2 3.4l.3.5.2.2c.3-.1.7.9.9.9.2 0 .1-1.1.4-1.2.3 0 .7 1 .9 1 .2 0 .1-1.1.4-1.2.3-.1.7.9.9.9.2 0 .1-1.1.4-1.2.3-.1.7.9.9.9.2 0 .1-1.1.4-1.2.3-.1.7.9.9.9.2 0 .1-1.1.4-1.2.3-.1.7.9.9.9.2 0 .1-1.1.4-1.2.3-.1.7.9.9.9.2 0 .1-1.1.4-1.2.3-.1.7.9.9.9.1 0 .1-1.1.4-1.2.3-.1.7.9.9.9.2 0 .1-1.1.4-1.2.3-.1.7.9.9.9.2 0 .1-1.1.4-1.2.3-.1.7.9.9.9.2 0 .1-1.1.4-1.2.3-.1.7.9.9.9.2 0 .1-1.1.4-1.2.3-.1.7.9.9.9.2 0 .1-1.1.4-1.2.3-.1.7.9.9.9.2 0 .1-1.1.4-1.2.3-.1.7.9.9.9.2 0 .1-1.1.4-1.2.3-.1.7.9.9.9.2 0 .1-1.1.4-1.2.3-.1.7.9.9.9.2 0 .1-1.1.4-1.2.3-.1.7.9.9.9.2 0 .1-1.1.4-1.2.2 0 .6 1 .8 1 .1 0 .1-.8.1-1.7 0 .1 0 .1 0 0 0 .1 0 0 0 0M30 71h-.7c-.2 0-.3-.2-.3-.3 0-.2.2-.3.3-.3h.7c.2 0 .3.2.3.3.1.2-.1.3-.3.3" id="path4410"/></g><path style="fill:#ed1c24" class="st1" id="rect4412" d="M42.9 24.3h9.3v5h-9.3z"/></g><g id="g4414"><g id="g4416"><path style="fill:#fff" class="st0" d="M300.3 49.3h2c1.1 0 2.2.4 2.2 1.7 0 .8-.5 1.4-1.3 1.6l1.6 2.6h-1.3l-1.4-2.5h-.8v2.5h-1v-5.9zm1.9 2.6c.6 0 1.3-.1 1.3-.9 0-.6-.6-.8-1.2-.8h-.9v1.7h.8z" id="path4418"/></g><g id="g4420"><path style="fill:#fff" class="st0" d="M302.3 57.3c-2.7 0-4.9-2.2-4.9-4.9s2.2-4.9 4.9-4.9 4.9 2.2 4.9 4.9-2.2 4.9-4.9 4.9zm0-9.2c-2.3 0-4.2 1.9-4.2 4.2 0 2.3 1.9 4.2 4.2 4.2 2.3 0 4.2-1.9 4.2-4.2 0-2.3-1.9-4.2-4.2-4.2z" id="path4422"/></g></g></g></g><style id="style4137">.st0{fill:#000c2c}.st1{fill:#ed1c24}.st2{fill-rule:evenodd;clip-rule:evenodd;fill:#000c2c}</style><style id="style4312">.st0{fill:#fff}.st1{fill:#ed1c24}.st2{fill-rule:evenodd;clip-rule:evenodd;fill:#fff}</style></svg>