<svg width="0" height="0" class="hidden">
  <symbol version="1.1" id="domain-www" xmlns="http://www.w3.org/2000/svg" xmlns:xlink="http://www.w3.org/1999/xlink" x="0px" y="0px" xml:space="preserve" viewBox="0 0 122.88 91.26">
    <g>
      <path d="M14.85,45.46h6.65l2.39,12.65l3.5-12.65h6.6l3.53,12.67l2.41-12.67h6.62l-5,22.68h-6.87L30.7,53.86 l-3.95,14.28h-6.86L14.85,45.46L14.85,45.46z M8.32,0h106.24c4.58,0,8.32,3.74,8.32,8.32v74.62c0,4.57-3.74,8.32-8.32,8.32H8.32 C3.74,91.26,0,87.51,0,82.94V8.32C0,3.74,3.74,0,8.32,0L8.32,0z M117.97,23.29H5.29v60.46c0,0.64,0.25,1.2,0.67,1.63 c0.42,0.42,0.99,0.67,1.63,0.67h108.04c0.64,0,1.2-0.25,1.63-0.67c0.43-0.43,0.67-0.99,0.67-1.63V23.29H117.97L117.97,23.29z M106.64,9.35c2.27,0,4.11,1.84,4.11,4.11s-1.84,4.11-4.11,4.11c-2.27,0-4.11-1.84-4.11-4.11S104.38,9.35,106.64,9.35L106.64,9.35z M78.8,9.35c2.27,0,4.11,1.84,4.11,4.11s-1.84,4.11-4.11,4.11c-2.27,0-4.11-1.84-4.11-4.11S76.53,9.35,78.8,9.35L78.8,9.35z M92.72,9.35c2.27,0,4.11,1.84,4.11,4.11s-1.84,4.11-4.11,4.11c-2.27,0-4.11-1.84-4.11-4.11S90.45,9.35,92.72,9.35L92.72,9.35z M78.3,45.46h6.65l2.39,12.65l3.5-12.65h6.6l3.53,12.67l2.41-12.67h6.62l-5,22.68h-6.87l-3.98-14.28L90.2,68.14h-6.86L78.3,45.46 L78.3,45.46z M46.58,45.46h6.65l2.39,12.65l3.5-12.65h6.6l3.53,12.67l2.41-12.67h6.62l-5,22.68h-6.87l-3.98-14.28l-3.95,14.28 h-6.86L46.58,45.46L46.58,45.46z"></path>
    </g>
  </symbol>
  <symbol fill="#0c478e" xmlns="http://www.w3.org/2000/svg" viewBox="0 0 24 24" id="facebook-icon">
    <path d="M17.525,9H14V7c0-1.032,0.084-1.682,1.563-1.682h1.868v-3.18C16.522,2.044,15.608,1.998,14.693,2 C11.98,2,10,3.657,10,6.699V9H7v4l3-0.001V22h4v-9.003l3.066-0.001L17.525,9z"></path>
  </symbol>
  <symbol xmlns="http://www.w3.org/2000/svg" fill="none" viewBox="0 0 83 107" id="ok">
    <path xmlns="http://www.w3.org/2000/svg" fill-rule="evenodd" clip-rule="evenodd" d="M42.048 37.228c-10.174 0-18.624-8.445-18.624-18.442C23.424 8.446 31.874 0 42.048 0c10.519 0 18.624 8.445 18.624 18.786 0 9.997-8.105 18.442-18.624 18.442Zm0-26.37c-4.311 0-7.588 3.62-7.588 7.928 0 4.31 3.277 7.584 7.588 7.584 4.483 0 7.587-3.275 7.587-7.584 0-4.308-3.104-7.928-7.587-7.928Zm7.415 41.71 10.519 10.168c2.07 2.24 2.07 5.515 0 7.584-2.242 2.24-5.69 2.24-7.415 0l-10.52-10.341-10.173 10.34c-1.035 1.035-2.415 1.552-3.966 1.552-1.208 0-2.587-.517-3.794-1.551-2.07-2.069-2.07-5.343 0-7.584l10.691-10.169c-3.966-1.206-7.587-2.757-11.036-4.825-2.587-1.38-3.104-4.826-1.725-7.412 1.725-2.585 4.829-3.274 7.588-1.55 7.587 4.653 17.244 4.653 24.832 0 2.759-1.724 6.035-1.035 7.587 1.55 1.552 2.586.862 6.033-1.552 7.412-3.276 2.068-7.07 3.619-11.036 4.825Z" fill="#ccc"></path>
    <g xmlns="http://www.w3.org/2000/svg" opacity=".8" fill="#f58220">
      <path fill-rule="evenodd" clip-rule="evenodd" d="M71.842 94.842C71 95.685 71 97.039 71 99.75v.5c0 2.71 0 4.065.84 4.908.844.842 2.199.842 4.91.842h.5c2.71 0 4.066 0 4.908-.842.842-.843.842-2.197.842-4.908v-.5c0-2.71 0-4.067-.842-4.908C81.316 94 79.96 94 77.251 94h-.51c-2.705 0-4.058 0-4.9.842Zm2.413 2.692a.081.081 0 0 0-.08-.07v.001H73.12a.08.08 0 0 0-.08.082c.034 1.622 1.06 4.989 4.172 4.989h.297a.08.08 0 0 0 .08-.08v-1.503c.747.116 1.43.461 1.86 1.03.13.172.232.348.309.507.013.028.04.046.072.046h1.046a.08.08 0 0 0 .075-.107 4.346 4.346 0 0 0-.59-1.124 3.816 3.816 0 0 0-1.245-1.099c.412-.32.767-.745 1.057-1.272a5.934 5.934 0 0 0 .533-1.37.08.08 0 0 0-.077-.1h-1.046a.08.08 0 0 0-.077.057 4.463 4.463 0 0 1-.364.858c-.222.396-.49.707-.798.925a2.292 2.292 0 0 1-.756.327v-2.087a.08.08 0 0 0-.08-.08H76.46a.08.08 0 0 0-.08.08v3.406a2.05 2.05 0 0 1-.927-.523v-.003c-.354-.34-.644-.828-.862-1.45a7.515 7.515 0 0 1-.335-1.44Z" fill="#ccc"></path>
      <path d="M3.025 97.972c.58 0 1.082.128 1.507.385.433.25.763.609.99 1.078.235.462.352 1.005.352 1.628s-.117 1.166-.352 1.628a2.517 2.517 0 0 1-.99 1.078c-.425.249-.928.374-1.507.374-.462 0-.887-.084-1.276-.253a2.525 2.525 0 0 1-.957-.704 2.166 2.166 0 0 1-.473-1.045h1.562c.059.227.19.407.396.539.205.132.444.198.715.198.352 0 .638-.11.858-.33.22-.22.363-.532.429-.935H2.101v-1.177h2.167c-.08-.389-.227-.686-.44-.891-.213-.205-.488-.308-.825-.308-.491 0-.84.224-1.045.671H.396c.11-.601.4-1.074.869-1.419.477-.345 1.063-.517 1.76-.517Zm9.55 6.028h-1.717l-1.66-2.365H8.68V104H7.173v-5.885H8.68v2.255h.54l1.517-2.255h1.64l-1.992 2.816 2.19 3.069Zm3.176.143c-.58 0-1.085-.125-1.518-.374a2.533 2.533 0 0 1-.99-1.067c-.235-.469-.352-1.019-.352-1.65 0-.623.117-1.166.352-1.628.235-.47.565-.829.99-1.078.433-.25.939-.374 1.518-.374.572 0 1.07.125 1.496.374.433.25.766.609 1.001 1.078.235.462.352 1.005.352 1.628 0 .631-.117 1.181-.352 1.65a2.447 2.447 0 0 1-.99 1.067c-.433.249-.935.374-1.507.374Zm0-1.265c.396 0 .711-.161.946-.484.235-.323.352-.77.352-1.342 0-.565-.117-1.008-.352-1.331a1.111 1.111 0 0 0-.946-.484c-.403 0-.722.161-.957.484-.235.323-.352.766-.352 1.331 0 .572.117 1.019.352 1.342.235.323.554.484.957.484Zm6.649 1.265c-.58 0-1.082-.125-1.507-.374a2.61 2.61 0 0 1-.99-1.078c-.227-.462-.341-1.005-.341-1.628s.113-1.166.34-1.628c.228-.47.554-.829.98-1.078.432-.257.938-.385 1.518-.385.697 0 1.276.172 1.738.517.47.345.759.818.869 1.419h-1.562c-.206-.447-.547-.671-1.023-.671-.418 0-.74.161-.968.484-.227.315-.341.763-.341 1.342 0 .572.114 1.019.34 1.342.228.315.555.473.98.473.271 0 .506-.066.704-.198a.9.9 0 0 0 .385-.539h1.562a2.166 2.166 0 0 1-.473 1.045 2.431 2.431 0 0 1-.946.704 3.088 3.088 0 0 1-1.265.253Zm5.503-.143h-1.727v-5.885h1.463v3.993h.055l2.08-3.993H31.5V104h-1.463v-3.993h-.055L27.903 104Zm7.731.143c-.58 0-1.081-.125-1.507-.374a2.61 2.61 0 0 1-.99-1.078c-.227-.462-.34-1.005-.34-1.628s.113-1.166.34-1.628c.228-.47.554-.829.98-1.078.432-.257.938-.385 1.517-.385.697 0 1.276.172 1.738.517.47.345.76.818.87 1.419h-1.563c-.205-.447-.546-.671-1.023-.671-.418 0-.74.161-.968.484-.227.315-.34.763-.34 1.342 0 .572.113 1.019.34 1.342.228.315.554.473.98.473.27 0 .505-.066.703-.198a.899.899 0 0 0 .385-.539h1.562a2.165 2.165 0 0 1-.473 1.045 2.43 2.43 0 0 1-.946.704 3.088 3.088 0 0 1-1.265.253ZM42.13 104h-1.507v-4.62h-1.859v-1.265h5.225v1.265H42.13V104Zm7.896-3.124c0 .191-.018.378-.055.561h-3.97c.05.506.194.887.428 1.144.235.257.558.385.968.385.228 0 .43-.044.605-.132a.758.758 0 0 0 .363-.396h1.563a2.05 2.05 0 0 1-.87 1.254c-.447.301-1.011.451-1.694.451-.564 0-1.063-.125-1.495-.374a2.546 2.546 0 0 1-.99-1.056c-.228-.462-.341-1.001-.341-1.617 0-.631.11-1.18.33-1.65.227-.477.546-.84.956-1.089.419-.257.906-.385 1.464-.385.557 0 1.04.121 1.452.363.41.242.725.583.945 1.023.228.433.341.939.341 1.518Zm-2.739-1.727c-.344 0-.623.11-.835.33-.206.22-.345.543-.419.968h2.498c-.066-.418-.206-.737-.419-.957a1.079 1.079 0 0 0-.825-.341Zm5.38 4.851h-1.43v-5.885h1.98l1.398 4.147h.055l1.44-4.147h1.937V104h-1.43v-3.817h-.055L55.23 104H54.01l-1.287-3.817h-.055V104Zm9.434-6.028c.74 0 1.316.205 1.727.616.41.41.616.975.616 1.694V104h-1.177l-.143-.616a2.418 2.418 0 0 1-1.804.759c-.594 0-1.067-.165-1.419-.495-.352-.337-.528-.785-.528-1.342 0-.609.227-1.078.682-1.408.455-.337 1.082-.506 1.881-.506h1.001v-.121c0-.367-.077-.645-.23-.836-.148-.19-.367-.286-.66-.286-.39 0-.657.172-.804.517h-1.562a1.94 1.94 0 0 1 .814-1.243c.433-.3.968-.451 1.606-.451Zm-1.22 4.246c0 .227.072.411.22.55.146.132.351.198.615.198.206 0 .414-.044.627-.132.22-.088.418-.209.594-.363v-1.034h-.99c-.345 0-.608.07-.792.209-.183.132-.275.323-.275.572Z" fill="#ccc"></path>
    </g>
  </symbol>
  <symbol xmlns="http://www.w3.org/2000/svg" xmlns:xlink="http://www.w3.org/1999/xlink" id="star" viewBox="0 0 351 351">
    <g transform="matrix(1.0001339 0 0 1.0001339 0 0)">
      <g>
        <g>
          <path d="M276.199 342.977C 274.211 342.977 272.21402 342.50198 270.385 341.541L270.385 341.541L175.47702 291.645L80.56902 341.541C 76.357025 343.754 71.25402 343.386 67.40502 340.589C 63.555023 337.793 61.62802 333.05298 62.432022 328.362L62.432022 328.362L80.55702 222.68L3.775 147.836C 0.36800003 144.515 -0.8579998 139.547 0.612 135.023C 2.082 130.498 5.994 127.2 10.702999 126.51499L10.702999 126.51499L116.813995 111.09699L164.26799 14.943993C 166.37299 10.676992 170.719 7.9759927 175.47699 7.9759927C 180.234 7.9759927 184.581 10.676992 186.685 14.943993L186.685 14.943993L234.13899 111.09699L340.249 126.51499C 344.958 127.19999 348.869 130.497 350.34 135.023C 351.811 139.547 350.585 144.515 347.177 147.836L347.177 147.836L270.394 222.681L288.52002 328.363C 289.324 333.052 287.39603 337.794 283.54703 340.59C 281.37 342.172 278.792 342.977 276.199 342.977zM39.362 147.615L102.714005 209.367C 105.66 212.238 107.005005 216.377 106.30801 220.43001L106.30801 220.43001L91.353004 307.626L169.659 266.456C 173.301 264.542 177.651 264.542 181.293 266.456L181.293 266.456L259.599 307.624L244.643 220.43C 243.948 216.374 245.292 212.23799 248.238 209.36699L248.238 209.36699L311.591 147.61499L224.04199 134.89299C 219.971 134.301 216.45099 131.745 214.62999 128.055L214.62999 128.055L175.478 48.720993L136.325 128.055C 134.50499 131.74399 130.984 134.301 126.912994 134.89299L126.912994 134.89299L39.362 147.615z" stroke="none" fill="#fff" fill-rule="nonzero"></path>
        </g>
      </g>
    </g>
  </symbol>
  <symbol version="1.1" id="saved" xmlns="http://www.w3.org/2000/svg" xmlns:xlink="http://www.w3.org/1999/xlink" x="0px" y="0px" xml:space="preserve" viewBox="0 0 122.59 122.88">
    <g>
      <path d="M4.95,0h112.68c2.74,0,4.95,2.22,4.95,4.95v112.97c0,2.74-2.22,4.95-4.95,4.95c-1.37,0-2.61-0.56-3.51-1.46L61.16,75.79 L8.18,121.66c-2.06,1.78-5.18,1.56-6.97-0.5c-0.81-0.93-1.2-2.09-1.2-3.23H0V4.95C0,2.22,2.22,0,4.95,0L4.95,0z M112.68,9.91H9.91 v97.2l47.97-41.54c1.82-1.62,4.61-1.68,6.51-0.04l48.3,41.61V9.91L112.68,9.91z" fill="#fff"></path>
    </g>
  </symbol>
  <symbol id="shopping-trolley" xmlns="http://www.w3.org/2000/svg" viewBox="0 0 122.88 107.54">
    <title>trolley</title>
    <path d="M3.93,7.86A3.93,3.93,0,0,1,3.93,0H14.15l.39,0A18.28,18.28,0,0,1,24.1,2.49a14.69,14.69,0,0,1,6.41,9.1c.32,1.41.66,2.82,1,4.23H119a3.92,3.92,0,0,1,3.93,3.92,4,4,0,0,1-.19,1.22L112.52,62.08a3.92,3.92,0,0,1-3.8,3H44.66c1.44,5.21,2.76,8,4.7,9.34,2.27,1.52,6.31,1.63,13,1.52h.07v0h45.17a3.93,3.93,0,1,1,0,7.86H62.46v0c-8.27.15-13.38-.09-17.46-2.84s-6.36-7.55-8.57-16.3l-13.51-51a7.19,7.19,0,0,0-3-4.49,10.8,10.8,0,0,0-5.51-1.3H3.93ZM96,88.34a9.6,9.6,0,1,1-9.6,9.6,9.6,9.6,0,0,1,9.6-9.6Zm-42.1,0a9.6,9.6,0,1,1-9.6,9.6,9.6,9.6,0,0,1,9.6-9.6ZM78,23.67V38h32.45l3.53-14.28Zm0,22.14V57.22h27.69l2.82-11.41ZM70.11,57.22V45.81H39.63q1.57,5.7,3,11.41Zm0-19.27V23.67H33.54c1.26,4.76,2.58,9.52,3.91,14.28Z" fill="#ed2126"></path>
  </symbol>
  <symbol id="trolley" xmlns="http://www.w3.org/2000/svg" viewBox="0 0 122.88 107.54">
    <title>trolley</title>
    <path d="M3.93,7.86A3.93,3.93,0,0,1,3.93,0H14.15l.39,0A18.28,18.28,0,0,1,24.1,2.49a14.69,14.69,0,0,1,6.41,9.1c.32,1.41.66,2.82,1,4.23H119a3.92,3.92,0,0,1,3.93,3.92,4,4,0,0,1-.19,1.22L112.52,62.08a3.92,3.92,0,0,1-3.8,3H44.66c1.44,5.21,2.76,8,4.7,9.34,2.27,1.52,6.31,1.63,13,1.52h.07v0h45.17a3.93,3.93,0,1,1,0,7.86H62.46v0c-8.27.15-13.38-.09-17.46-2.84s-6.36-7.55-8.57-16.3l-13.51-51a7.19,7.19,0,0,0-3-4.49,10.8,10.8,0,0,0-5.51-1.3H3.93ZM96,88.34a9.6,9.6,0,1,1-9.6,9.6,9.6,9.6,0,0,1,9.6-9.6Zm-42.1,0a9.6,9.6,0,1,1-9.6,9.6,9.6,9.6,0,0,1,9.6-9.6ZM78,23.67V38h32.45l3.53-14.28Zm0,22.14V57.22h27.69l2.82-11.41ZM70.11,57.22V45.81H39.63q1.57,5.7,3,11.41Zm0-19.27V23.67H33.54c1.26,4.76,2.58,9.52,3.91,14.28Z" fill="#000"></path>
  </symbol>
  <symbol version="1.1" id="smartphone" xmlns="http://www.w3.org/2000/svg" xmlns:xlink="http://www.w3.org/1999/xlink" x="0px" y="0px" xml:space="preserve" viewBox="0 0 71.31 122.88">
    <g>
      <path d="M12.47,0h46.36c3.43,0,6.55,1.4,8.81,3.66c2.26,2.26,3.66,5.38,3.66,8.81v97.94c0,3.43-1.4,6.55-3.66,8.81 c-2.26,2.26-5.38,3.66-8.81,3.66H12.47c-3.43,0-6.55-1.4-8.81-3.66C1.4,116.96,0,113.84,0,110.41V12.47c0-3.43,1.4-6.55,3.66-8.81 C5.92,1.4,9.04,0,12.47,0L12.47,0z M28.93,113c-0.83,0-1.5-0.67-1.5-1.5c0-0.83,0.67-1.5,1.5-1.5h13.72c0.83,0,1.5,0.67,1.5,1.5 c0,0.83-0.67,1.5-1.5,1.5H28.93L28.93,113z M27.65,7.16c1.31,0,2.38,1.07,2.38,2.38c0,1.31-1.07,2.38-2.38,2.38 c-1.31,0-2.38-1.07-2.38-2.38C25.27,8.23,26.34,7.16,27.65,7.16L27.65,7.16z M35.65,7.16c1.31,0,2.38,1.07,2.38,2.38 c0,1.31-1.07,2.38-2.38,2.38c-1.32,0-2.38-1.07-2.38-2.38C33.27,8.23,34.34,7.16,35.65,7.16L35.65,7.16z M43.65,7.16 c1.31,0,2.38,1.07,2.38,2.38c0,1.31-1.07,2.38-2.38,2.38c-1.32,0-2.38-1.07-2.38-2.38C41.27,8.23,42.34,7.16,43.65,7.16L43.65,7.16 z M3,99.29h65.31V19.21H3V99.29L3,99.29z M68.31,102.29H3v8.12c0,2.6,1.07,4.97,2.78,6.69c1.72,1.72,4.09,2.78,6.69,2.78h46.36 c2.6,0,4.97-1.07,6.69-2.78c1.72-1.72,2.78-4.09,2.78-6.69V102.29L68.31,102.29z M3,16.21h65.31v-3.74c0-2.6-1.07-4.97-2.78-6.69 C63.81,4.06,61.44,3,58.83,3H12.47C9.87,3,7.5,4.06,5.78,5.78C4.06,7.5,3,9.87,3,12.47V16.21L3,16.21z" fill="#ed2126"></path>
    </g>
  </symbol>
  <symbol id="pin-location" xmlns="http://www.w3.org/2000/svg" viewBox="0 0 92.25 122.88">
    <defs></defs>
    <title>pin-location</title>
    <path d="M49.1,122.34a2.75,2.75,0,0,1-3.12.1A109.7,109.7,0,0,1,19,98.35C9.15,86,3,72.33.83,59.16-1.33,45.79.69,32.94,7.34,22.49A45.14,45.14,0,0,1,17.39,11.35C26.77,3.87,37.49-.08,48.16,0c10.29.08,20.43,3.92,29.2,11.91a43,43,0,0,1,7.79,9.49c7.15,11.77,8.69,26.8,5.55,42a92.52,92.52,0,0,1-41.6,58.92Zm-3-98.58a23,23,0,1,1-22.94,23A23,23,0,0,1,46.13,23.76Z" fill="#ed2126"></path>
  </symbol>
  <symbol version="1.1" id="address-location" xmlns="http://www.w3.org/2000/svg" xmlns:xlink="http://www.w3.org/1999/xlink" x="0px" y="0px" xml:space="preserve" viewBox="0 0 122.88 117.55">
    <g>
      <path d="M78.81,82.78c-4.35,4.77-9.42,9.05-15.12,12.51c-0.7,0.51-1.65,0.58-2.43,0.08 c-8.41-5.35-15.48-11.78-21.03-18.76c-7.66-9.61-12.49-20.27-14.14-30.53c-1.68-10.41-0.11-20.42,5.07-28.56 c2.04-3.22,4.65-6.15,7.83-8.68C46.3,3.01,54.65-0.06,62.96,0c8.01,0.06,15.91,3.05,22.74,9.28c2.4,2.18,4.42,4.68,6.07,7.39 c5.57,9.17,6.77,20.87,4.32,32.73c-2.41,11.71-8.41,23.62-17.28,33.35V82.78L78.81,82.78L78.81,82.78z M25.32,74.54 c1.98,0,3.59,1.61,3.59,3.59c0,1.98-1.61,3.59-3.59,3.59h-6.74l-8.88,28.67h103.22l-9.64-28.67h-5.57c-1.98,0-3.59-1.61-3.59-3.59 c0-1.98,1.61-3.59,3.59-3.59h10.7l14.46,43.01H0l13.32-43.01H25.32L25.32,74.54z M61.38,18.51c9.88,0,17.88,8.01,17.88,17.87 c0,9.88-8.01,17.88-17.88,17.88c-9.88,0-17.87-8-17.87-17.88C43.49,26.51,51.5,18.51,61.38,18.51L61.38,18.51L61.38,18.51z" fill="#bdbdbd"></path>
    </g>
  </symbol>
  <symbol version="1.1" id="check-box" xmlns="http://www.w3.org/2000/svg" xmlns:xlink="http://www.w3.org/1999/xlink" x="0px" y="0px" enable-background="new 0 0 122.88 122.88" xml:space="preserve" viewBox="0 0 122.88 122.88">
    <g>
      <path d="M34.465,67.43c-1.461-1.322-1.574-3.579-0.252-5.041c1.322-1.461,3.58-1.574,5.041-0.252l13.081,11.862l31.088-32.56 c1.361-1.431,3.625-1.487,5.056-0.126c1.431,1.361,1.487,3.624,0.126,5.055L55.11,81.447l-0.005-0.004 c-1.33,1.398-3.541,1.489-4.98,0.187L34.465,67.43L34.465,67.43z M8.792,0h105.296c2.422,0,4.62,0.988,6.212,2.58 s2.58,3.791,2.58,6.212v105.295c0,2.422-0.988,4.62-2.58,6.212s-3.79,2.58-6.212,2.58H8.792c-2.421,0-4.62-0.988-6.212-2.58 S0,116.51,0,114.088V8.792C0,6.371,0.988,4.172,2.58,2.58S6.371,0,8.792,0L8.792,0z M114.088,7.17H8.792 c-0.442,0-0.847,0.184-1.143,0.479C7.354,7.945,7.17,8.35,7.17,8.792v105.295c0,0.442,0.184,0.848,0.479,1.144 c0.296,0.296,0.701,0.479,1.143,0.479h105.296c0.442,0,0.848-0.184,1.144-0.479c0.295-0.296,0.479-0.701,0.479-1.144V8.792 c0-0.443-0.185-0.848-0.479-1.143C114.936,7.354,114.53,7.17,114.088,7.17L114.088,7.17z"></path>
    </g>
  </symbol>
  <symbol xmlns="http://www.w3.org/2000/svg" enable-background="new 0 0 50 50" viewBox="0 0 50 50" id="card">
    <path d="M48.5386,15.0176c0-2.7568-2.2432-5-5-5H6.4614c-2.7568,0-5,2.2432-5,5v19.9648c0,2.7569,2.2432,5,5,5h37.0772 c2.7568,0,5-2.2431,5-5V15.0176z M46.5386,34.9824c0,1.6543-1.3457,3-3,3H6.4614c-1.6543,0-3-1.3457-3-3V15.0176 c0-1.6543,1.3457-3,3-3h37.0772c1.6543,0,3,1.3457,3,3V34.9824z" fill="#fff"/>
    <path d="M17.4488 14.3701c-.951 0-1.8502.2174-2.6599.5955-.8303-.385-1.7352-.5974-2.6556-.5974-3.4785 0-6.3076 2.8359-6.3076 6.3213 0 3.4785 2.8291 6.3076 6.3076 6.3076.9197 0 1.8225-.2114 2.6507-.5949C15.5949 26.7817 16.4958 27 17.4488 27c3.4814 0 6.3144-2.833 6.3144-6.3144C23.7632 17.2031 20.9302 14.3701 17.4488 14.3701zM7.8257 20.6895c0-2.3829 1.9326-4.3213 4.3076-4.3213.2271 0 .4489.0222.668.0559-1.0321 1.1247-1.668 2.6183-1.668 4.2615 0 1.6406.6345 3.1324 1.6643 4.2564-.2178.0333-.4385.0551-.6643.0551C9.7583 24.9971 7.8257 23.0645 7.8257 20.6895zM17.4488 25c-2.3799 0-4.3155-1.9355-4.3155-4.3144 0-2.3799 1.9356-4.3155 4.3155-4.3155 2.3789 0 4.3144 1.9356 4.3144 4.3155C21.7632 23.0645 19.8277 25 17.4488 25zM22.7632 31.6914H7.314c-.5527 0-1 .4473-1 1s.4473 1 1 1h15.4492c.5527 0 1-.4473 1-1S23.3159 31.6914 22.7632 31.6914zM41.147 26.7744h-9.833c-.5527 0-1 .4473-1 1 0 .5528.4473 1 1 1h9.833c.5527 0 1-.4472 1-1C42.147 27.2217 41.6997 26.7744 41.147 26.7744zM41.147 31.6914h-9.833c-.5527 0-1 .4473-1 1s.4473 1 1 1h9.833c.5527 0 1-.4473 1-1S41.6997 31.6914 41.147 31.6914z" fill="#fff"/>
  </symbol>
</svg>